<svg id="Camada_1" data-name="Camada 1" xmlns="http://www.w3.org/2000/svg" viewBox="0 0 31.36 20.14"><defs><style>.cls-1{fill:#f15a24;}</style></defs><title>logo2 32px</title><path class="cls-1" d="M1.16,9.38A8,8,0,0,0,2,17.94a9.62,9.62,0,0,0,.84,1c.05,0,4.09,4.46,5,6.88A21.58,21.58,0,0,1,12,20c.52-.57,1.05-1.17,1.55-1.77A7.93,7.93,0,0,0,15,10.31,7.31,7.31,0,0,0,8.26,5.64H7.9A7.66,7.66,0,0,0,1.16,9.38m6.71.45a3.39,3.39,0,1,1-3.4,3.39,3.39,3.39,0,0,1,3.4-3.39" transform="translate(-0.27 -5.63)"/><path class="cls-1" d="M27.64,12a11.88,11.88,0,0,1,1.58,2.1,7.21,7.21,0,0,1,1.29-1.75c.17-.18.34-.37.5-.56a2.46,2.46,0,0,0,.47-2.45,2.31,2.31,0,0,0-2.13-1.45h-.11a2.42,2.42,0,0,0-2.13,1.16,2.45,2.45,0,0,0,.26,2.66,3.71,3.71,0,0,0,.27.29m1.59-2.85a1.09,1.09,0,1,1-1.07,1.09,1.08,1.08,0,0,1,1.07-1.09" transform="translate(-0.27 -5.63)"/><path class="cls-1" d="M28.51,14.89l-9.38.88,4.49,2.57L14.1,19.82a34.65,34.65,0,0,0-4.39,5.62L31.1,19l-7.74-2.59Z" transform="translate(-0.27 -5.63)"/></svg>