<svg width="151" height="45" xmlns="http://www.w3.org/2000/svg">
 <defs>
  <style>.cls-1{fill:none;}.cls-2{clip-path:url(#clip-path);}.cls-3{fill:#29abe2;}</style>
  <clipPath id="clip-path">
   <rect id="svg_1" height="113.64" width="155.09" y="-23" x="-2" class="cls-1"/>
  </clipPath>
 </defs>
 <title>nome 150px</title>
 <g>
  <title>background</title>
  <rect fill="none" id="canvas_background" height="47" width="153" y="-1" x="-1"/>
 </g>
 <g>
  <title>Layer 1</title>
  <rect x="-2" y="-23" stroke="null" id="svg_2" height="58.640001" width="151" class="cls-1"/>
  <g transform="translate(-2,-10) " id="svg_3" class="cls-2">
   <path id="svg_4" d="m52,50.43a0.81,0.81 0 0 0 0,-0.16l-0.29,-12.78s0,-0.07 0,-0.11c-0.13,-0.88 -1.52,-8.59 -11.22,-8.89c-4,-0.13 -7.18,1.18 -9.41,3.89a12.23,12.23 0 0 0 -2.43,5a0.2,0.2 0 0 0 0,0.11l0,0l0,0l0,12.82l0,0a0.86,0.86 0 0 0 0.24,0.65a0.94,0.94 0 0 0 0.67,0.29a0.6,0.6 0 0 0 0.32,-0.12a2.42,2.42 0 0 0 0.55,-0.87l0,-12.42a1.75,1.75 0 0 1 0,-0.32l0.27,-1.08a0.7,0.7 0 0 1 0.08,-0.2a11.85,11.85 0 0 1 2.44,-3.51a8.78,8.78 0 0 1 5.67,-2.66l1.24,0a11.58,11.58 0 0 1 9.18,6.55a0.61,0.61 0 0 1 0,0.12l0.25,0.75a1.14,1.14 0 0 1 0.07,0.41l0,12.34a1,1 0 0 0 1,1l0.37,0c0.27,-0.12 0.84,-0.44 1,-0.8" class="cls-3"/>
   <path id="svg_5" d="m29.53,51.3a1,1 0 0 1 -0.71,-0.31a0.9,0.9 0 0 1 -0.26,-0.68l0,-12.82l0,0l0,0a0.33,0.33 0 0 1 0,-0.14a12.38,12.38 0 0 1 2.44,-5c2.24,-2.72 5.42,-4 9.46,-3.91c9.73,0.3 11.13,8 11.26,8.93c0,0 0,0.08 0,0.12l0.28,12.78a1.11,1.11 0 0 1 0,0.17l0,0c-0.17,0.44 -0.92,0.79 -1,0.83l-0.32,0a1,1 0 0 1 -1,-1l0,-12.39a1.28,1.28 0 0 0 -0.07,-0.39l-0.25,-0.75a0.61,0.61 0 0 0 0,-0.12a11.18,11.18 0 0 0 -1.08,-1.83a10.42,10.42 0 0 0 -8,-4.68l-0.51,0l-0.87,0a8.7,8.7 0 0 0 -5.63,2.65a12.06,12.06 0 0 0 -2.44,3.49a1.18,1.18 0 0 0 -0.07,0.2l-0.27,1.08a1.45,1.45 0 0 0 0,0.3l0,12.45a2.35,2.35 0 0 1 -0.57,0.89a0.69,0.69 0 0 1 -0.35,0.13m-0.88,-13.88l0,0l0,12.89a0.84,0.84 0 0 0 0.22,0.61a0.91,0.91 0 0 0 0.64,0.27a0.53,0.53 0 0 0 0.29,-0.1a2.36,2.36 0 0 0 0.53,-0.84l0,-12.41a1.86,1.86 0 0 1 0,-0.33l0.27,-1.08c0,-0.07 0.05,-0.14 0.08,-0.22a12.22,12.22 0 0 1 2.45,-3.52a8.84,8.84 0 0 1 5.72,-2.69l1.26,0a11.67,11.67 0 0 1 9.22,6.58s0,0.08 0.05,0.13l0.25,0.75a1.2,1.2 0 0 1 0.07,0.42l0,12.36a0.94,0.94 0 0 0 0.94,0.94l0.32,0a2,2 0 0 0 0.94,-0.76a0.76,0.76 0 0 0 0,-0.15l-0.3,-12.78l0,-0.1c-0.13,-0.88 -1.51,-8.55 -11.17,-8.85c-4,-0.13 -7.16,1.18 -9.37,3.88a12.13,12.13 0 0 0 -2.42,4.93s0,0.06 0,0.07" class="cls-3"/>
   <path id="svg_6" d="m150.25,38.18a0.79,0.79 0 0 0 0.12,-0.68c-0.84,-2.76 -3.55,-9.07 -10.79,-9.07l-0.43,0a13.89,13.89 0 0 0 -5.49,1.57c-3.65,2 -5.57,5.31 -5.7,10a13.72,13.72 0 0 0 1.44,5.61c1.91,3.7 5.3,5.57 10.07,5.57c0.06,0 5.65,0 8.15,-3.13a0.77,0.77 0 0 0 0,-1a0.78,0.78 0 0 0 -0.33,-0.07l-0.29,0a0.75,0.75 0 0 0 -0.55,0.25a8.39,8.39 0 0 1 -4.65,2.31a12.55,12.55 0 0 1 -2.69,0.21c-3.08,0 -5.49,-0.9 -7.15,-2.68a9.54,9.54 0 0 1 -2.27,-4.75a10.48,10.48 0 0 1 -0.2,-2.53a12.61,12.61 0 0 1 0.62,-3.21a8.94,8.94 0 0 1 4.47,-5.33a10.91,10.91 0 0 1 4.54,-1.2a9.62,9.62 0 0 1 6,1.9a9.32,9.32 0 0 1 2.72,3.38a1,1 0 0 1 0.11,0.55a1,1 0 0 1 -0.06,0.43a1.11,1.11 0 0 1 -1.06,0.75l-12.28,0a0.75,0.75 0 0 0 -0.75,0.7a0.79,0.79 0 0 0 0.79,0.73l15,0a0.77,0.77 0 0 0 0.61,-0.3" class="cls-3"/>
   <path id="svg_7" d="m139.47,51.2c-4.79,0 -8.2,-1.89 -10.11,-5.61a13.84,13.84 0 0 1 -1.46,-5.59c0.14,-4.67 2.06,-8 5.73,-10a14.08,14.08 0 0 1 5.52,-1.58l0.43,0c7.29,0 10,6.37 10.83,9.11a0.83,0.83 0 0 1 -0.12,0.73l0,0a0.82,0.82 0 0 1 -0.65,0.33l-15,0a0.85,0.85 0 0 1 -0.84,-0.79a0.81,0.81 0 0 1 0.8,-0.75l12.34,0a1.05,1.05 0 0 0 1,-0.72a0.93,0.93 0 0 0 0.06,-0.41a1.07,1.07 0 0 0 -0.1,-0.53a9.19,9.19 0 0 0 -8.71,-5.24a10.79,10.79 0 0 0 -4.52,1.18a9,9 0 0 0 -4.44,5.3a12.79,12.79 0 0 0 -0.62,3.2a11.16,11.16 0 0 0 0.2,2.52a9.54,9.54 0 0 0 2.19,4.65a9.31,9.31 0 0 0 7.11,2.66a13.22,13.22 0 0 0 2.68,-0.21a8.34,8.34 0 0 0 4.62,-2.29a0.85,0.85 0 0 1 0.59,-0.28l0.26,0a0.73,0.73 0 0 1 0.35,0.09l0,0a0.81,0.81 0 0 1 0,1c-2.52,3.12 -8.13,3.16 -8.19,3.16m0.11,-22.72l-0.42,0a13.6,13.6 0 0 0 -5.48,1.56c-3.63,2 -5.54,5.28 -5.67,9.91a13.57,13.57 0 0 0 1.44,5.58c1.9,3.68 5.27,5.55 10,5.55c0.06,0 5.62,0 8.11,-3.12a0.69,0.69 0 0 0 0,-0.88a0.59,0.59 0 0 0 -0.29,-0.07l-0.22,0a0.69,0.69 0 0 0 -0.51,0.24a8.42,8.42 0 0 1 -4.68,2.32a12,12 0 0 1 -2.71,0.21a9.4,9.4 0 0 1 -7.1,-2.61a9.6,9.6 0 0 1 -2.28,-4.78a10.66,10.66 0 0 1 -0.2,-2.54a12.94,12.94 0 0 1 0.62,-3.23a9.07,9.07 0 0 1 4.49,-5.36a11.06,11.06 0 0 1 4.57,-1.2a9.29,9.29 0 0 1 8.8,5.3a1.06,1.06 0 0 1 0.11,0.58a1.14,1.14 0 0 1 -0.06,0.45a1.18,1.18 0 0 1 -1.11,0.78l-12.39,0a0.71,0.71 0 0 0 -0.7,0.65a0.74,0.74 0 0 0 0.74,0.68l15,0a0.7,0.7 0 0 0 0.57,-0.29a0.74,0.74 0 0 0 0.11,-0.63c-0.83,-2.71 -3.52,-9 -10.74,-9" class="cls-3"/>
   <path id="svg_8" d="m21.4,20.25a1,1 0 0 0 -0.65,-0.25l-0.13,0a1,1 0 0 0 -0.86,1l0,3.46a1,1 0 0 0 0.86,1a1,1 0 0 0 0.78,-0.24a1,1 0 0 0 0.33,-0.73l0,-3.49a1,1 0 0 0 -0.33,-0.73" class="cls-3"/>
   <path id="svg_9" d="m20.75,25.57l-0.13,0a1.06,1.06 0 0 1 -0.91,-1.07l0,-3.5a1.06,1.06 0 0 1 0.91,-1l0.13,0a1,1 0 0 1 0.68,0.26l0,0a1,1 0 0 1 0.35,0.77l0,3.56a1,1 0 0 1 -0.35,0.77a1,1 0 0 1 -0.68,0.26m0,-5.52l-0.12,0a1,1 0 0 0 -0.81,1l0,3.46a1,1 0 0 0 0.81,1a0.94,0.94 0 0 0 1.05,-0.92l0,-3.64a0.92,0.92 0 0 0 -0.32,-0.69a0.87,0.87 0 0 0 -0.61,-0.24" class="cls-3"/>
   <path id="svg_10" d="m21.4,28.79a1,1 0 0 0 -0.65,-0.25l-0.13,0a1,1 0 0 0 -0.86,1l0,20.62a1,1 0 0 0 0.86,1a1,1 0 0 0 1.11,-1l0,-20.64a1,1 0 0 0 -0.33,-0.73" class="cls-3"/>
   <path id="svg_11" d="m20.75,51.24l-0.13,0a1.06,1.06 0 0 1 -0.91,-1.07l0,-20.6a1.06,1.06 0 0 1 0.91,-1.07l0.13,0a1,1 0 0 1 0.68,0.26l0,0a1,1 0 0 1 0.35,0.77l0,20.68a1,1 0 0 1 -0.35,0.77a1,1 0 0 1 -0.68,0.26m0,-22.64l-0.12,0a1,1 0 0 0 -0.81,1l0,20.56a1,1 0 0 0 0.81,1a0.94,0.94 0 0 0 1.05,-0.92l0,-20.72a0.94,0.94 0 0 0 -0.32,-0.69a0.91,0.91 0 0 0 -0.61,-0.23" class="cls-3"/>
   <path id="svg_12" d="m8.31,23.06a1.4,1.4 0 0 1 -1.15,-0.61a1.38,1.38 0 0 1 -0.16,-1.29c1,-2.32 3.48,-6.16 10.08,-6.56l0.06,0l0.47,0l0.1,0a1,1 0 0 0 1,-1l0,-0.38a1.09,1.09 0 0 0 -0.68,-1a0.84,0.84 0 0 0 -0.24,-0.06a14.37,14.37 0 0 0 -13.36,9.16l0,0.07c0,0.07 -0.07,0.21 -0.12,0.4a6.6,6.6 0 0 0 -0.31,1.58l0,26.75a1.06,1.06 0 0 0 0.41,0.84a1.09,1.09 0 0 0 0.91,0.21a1.09,1.09 0 0 0 0.82,-1.08l0,-23.16a1.37,1.37 0 0 1 1.37,-1.37l4.11,0a1.07,1.07 0 0 0 1.08,-1.07l0,-0.35a1.08,1.08 0 0 0 -1.08,-1.08l-3.31,0z" class="cls-3"/>
   <path id="svg_13" d="m5.08,51.25a1.13,1.13 0 0 1 -1.08,-1.13l0,-26.75a6.46,6.46 0 0 1 0.28,-1.59l0.12,-0.4l0,-0.07a14,14 0 0 1 6.71,-7.59a16.14,16.14 0 0 1 6.68,-1.72a1,1 0 0 1 0.27,0.06a1.15,1.15 0 0 1 0.71,1l0,0.38a1.11,1.11 0 0 1 -1.06,1.09l-0.1,0l-0.46,0l-0.07,0c-6.58,0.47 -9.08,4.37 -10.02,6.65a1.34,1.34 0 0 0 1.25,1.82l3.31,0a1.14,1.14 0 0 1 1.13,1.13l0,0.35a1.13,1.13 0 0 1 -1.13,1.12l-4.11,0a1.32,1.32 0 0 0 -1.31,1.33l0,23.16a1.15,1.15 0 0 1 -0.87,1.13l-0.25,0m12.71,-39.08a14.39,14.39 0 0 0 -13.31,9.2l0,0.07l-0.12,0.4a6.8,6.8 0 0 0 -0.27,1.56l0,26.75a1,1 0 0 0 1.24,1a1,1 0 0 0 0.79,-1l0,-23.19a1.42,1.42 0 0 1 1.42,-1.42l4.08,0a1,1 0 0 0 1,-1l0,-0.35a1,1 0 0 0 -1,-1l-3.36,0a1.43,1.43 0 0 1 -1.29,-2c0.92,-2.3 3.46,-6.22 10.11,-6.59l0.63,0a1,1 0 0 0 0.95,-1l0,-0.38a1,1 0 0 0 -0.66,-0.99a0.77,0.77 0 0 0 -0.23,-0.06" class="cls-3"/>
   <path id="svg_14" d="m86.89,50a1.28,1.28 0 1 0 -1.57,1.26a0.86,0.86 0 0 0 0.23,0a1.34,1.34 0 0 0 1.34,-1.26" class="cls-3"/>
   <path id="svg_15" d="m85.55,51.29l-0.24,0a1.32,1.32 0 0 1 -1,-1.29a1.33,1.33 0 0 1 2.66,0l0,0a1.4,1.4 0 0 1 -1.39,1.34m0.06,-2.55a1.23,1.23 0 0 0 -1.25,1.21a1.21,1.21 0 0 0 0.94,1.19a0.86,0.86 0 0 0 0.22,0a1.28,1.28 0 0 0 1.29,-1.24a1.24,1.24 0 0 0 -1.23,-1.2" class="cls-3"/>
   <path id="svg_16" d="m120.87,50.43a0.81,0.81 0 0 0 1.28,0.67a0.69,0.69 0 0 0 0.17,-0.17a0.88,0.88 0 0 0 0.16,-0.51l0,-14.64a8.86,8.86 0 0 0 -1,-3.66c-0.87,-1.66 -2.73,-3.64 -6.68,-3.64a9,9 0 0 0 -2.2,0.34a7.36,7.36 0 0 0 -3.82,2.43a1.2,1.2 0 0 1 -0.87,0.46a1.18,1.18 0 0 1 -0.89,-0.36a8.76,8.76 0 0 0 -6.22,-2.87a7.32,7.32 0 0 0 -6.72,3.65a10.08,10.08 0 0 0 -1.24,3.66l0,14.63a0.81,0.81 0 0 0 0.81,0.81l0.15,0a0.83,0.83 0 0 0 0.83,-0.83l0,-14.61a0.49,0.49 0 0 1 0,-0.12a6.51,6.51 0 0 1 1,-2.77a6.26,6.26 0 0 1 4.1,-2.7l0.19,0l0.07,0l0.09,0l0.43,-0.07l0.06,0a0.57,0.57 0 0 1 0.13,0l0.58,0l0.11,0l0,0l0.14,0l0,0l0.16,0l0,0a6.07,6.07 0 0 1 4.79,4a1.09,1.09 0 0 1 0.06,0.36l0,15.92a0.83,0.83 0 0 0 0.83,0.82l0.33,0a0.81,0.81 0 0 0 0.81,-0.8l0,-15.81a1,1 0 0 1 0,-0.33a6.05,6.05 0 0 1 2.65,-3.37a6.43,6.43 0 0 1 3.46,-0.94l0.38,0a6.9,6.9 0 0 1 4.39,1.75a5.36,5.36 0 0 1 1.48,4l0,14.7z" class="cls-3"/>
   <path id="svg_17" d="m121.68,51.31a0.87,0.87 0 0 1 -0.28,0a0.86,0.86 0 0 1 -0.58,-0.78l0,0l0,-14.84a5.29,5.29 0 0 0 -1.47,-3.91a6.83,6.83 0 0 0 -4.35,-1.78l-0.17,0a6.39,6.39 0 0 0 -3.43,0.93a6.09,6.09 0 0 0 -2.64,3.35a1.06,1.06 0 0 0 0,0.31l0,15.84a0.87,0.87 0 0 1 -0.86,0.86l-0.33,0a0.88,0.88 0 0 1 -0.88,-0.88l0,-15.81a1.34,1.34 0 0 0 -0.05,-0.35a6.07,6.07 0 0 0 -4.77,-4l0,0l-0.14,0l0,0l-0.14,0l0,0l-0.09,0l-0.55,0l0,0l-0.23,0c-0.14,0 -0.28,0 -0.42,0.06l-0.18,0l-0.17,0a6.24,6.24 0 0 0 -4.07,2.68a6.43,6.43 0 0 0 -1,2.74a0.49,0.49 0 0 0 0,0.12l0,14.55a0.87,0.87 0 0 1 -0.88,0.88l-0.3,0a0.86,0.86 0 0 1 -0.86,-0.86l0,-14.63a10,10 0 0 1 1.25,-3.69a7.37,7.37 0 0 1 6.76,-3.68a8.79,8.79 0 0 1 6.26,2.89a1.06,1.06 0 0 0 0.85,0.34a1.1,1.1 0 0 0 0.83,-0.43a7.38,7.38 0 0 1 3.85,-2.45a9.5,9.5 0 0 1 2.21,-0.35c4,0 5.85,2 6.72,3.68a8.91,8.91 0 0 1 1,3.68l0,14.64a0.94,0.94 0 0 1 -0.17,0.54a0.77,0.77 0 0 1 -0.18,0.18a0.84,0.84 0 0 1 -0.5,0.17m-0.76,-0.93l0,0.05a0.76,0.76 0 0 0 1.2,0.63a1.21,1.21 0 0 0 0.16,-0.16a0.83,0.83 0 0 0 0.15,-0.48l0,-14.64a8.81,8.81 0 0 0 -1,-3.64c-0.86,-1.65 -2.71,-3.61 -6.63,-3.61a9,9 0 0 0 -2.19,0.34a7.31,7.31 0 0 0 -3.79,2.41a1.22,1.22 0 0 1 -0.91,0.48a1.24,1.24 0 0 1 -0.93,-0.37a8.68,8.68 0 0 0 -6.18,-2.86a7.28,7.28 0 0 0 -6.68,3.63a9.59,9.59 0 0 0 -1.16,3.64l0,14.62a0.76,0.76 0 0 0 0.75,0.76l0.15,0a0.78,0.78 0 0 0 0.78,-0.78l0,-14.74a6.84,6.84 0 0 1 1,-2.79a6.35,6.35 0 0 1 4.14,-2.72l0.17,0l0.18,0l0.43,-0.07l0.81,0l0.09,0l0,0l0.13,0l0,0l0.14,0l0,0a6.15,6.15 0 0 1 4.83,4.08a1.21,1.21 0 0 1 0.06,0.38l0,15.87a0.78,0.78 0 0 0 0.78,0.77l0.33,0a0.76,0.76 0 0 0 0.75,-0.75l0,-15.81a1.07,1.07 0 0 1 0.06,-0.35a6.16,6.16 0 0 1 2.67,-3.4a6.52,6.52 0 0 1 3.49,-0.94l0.26,0a6.93,6.93 0 0 1 4.42,1.76a5.41,5.41 0 0 1 1.49,4l0.05,14.69z" class="cls-3"/>
   <path id="svg_18" d="m57.26,39.7a12.77,12.77 0 0 0 0.26,2.92a11.28,11.28 0 0 0 2.69,5.46a10.51,10.51 0 0 0 6.79,3.07c0.55,0 1.11,0.08 1.7,0.08l0.09,0a14,14 0 0 0 5.21,-1.12a10.47,10.47 0 0 0 4,-2.92l0.35,-0.45a11.46,11.46 0 0 0 2,-5.36a0.49,0.49 0 0 0 0,-0.12l0,-20.26l0,0a0.38,0.38 0 0 0 0.13,-0.34a0.87,0.87 0 0 0 -0.17,-0.22a1,1 0 0 0 -0.73,-0.31l-0.18,0a0.93,0.93 0 0 0 -0.29,0.05l0,0l0,0a1.08,1.08 0 0 0 -0.66,0.89l0,20.23a7.35,7.35 0 0 1 -1.15,4a8.24,8.24 0 0 1 -2.85,2.84a10.94,10.94 0 0 1 -2.25,1a14.43,14.43 0 0 1 -3.41,0.62l-0.08,0c-0.47,0 -4.66,0 -7.47,-2.79a9.21,9.21 0 0 1 -2.52,-6.83s0,-0.32 0,-0.77a11.94,11.94 0 0 1 1.06,-4.19c1.07,-2.23 3.42,-4.92 8.58,-5.11l0.08,0a11.73,11.73 0 0 1 3.46,0.6a1.06,1.06 0 0 0 1.23,-0.41a0.84,0.84 0 0 0 0.13,-0.27a0.9,0.9 0 0 0 0,-0.46a1,1 0 0 0 -0.59,-0.65a8.83,8.83 0 0 0 -3.38,-0.67a8.45,8.45 0 0 0 -0.85,0a13.53,13.53 0 0 0 -1.8,0.28a15.07,15.07 0 0 0 -3.7,1.37a10.51,10.51 0 0 0 -5.6,9.85" class="cls-3"/>
   <path id="svg_19" d="m68.77,51.28l-0.09,0a15.51,15.51 0 0 1 -1.68,-0.08a10.58,10.58 0 0 1 -6.81,-3.09a11.31,11.31 0 0 1 -2.7,-5.48a12.65,12.65 0 0 1 -0.26,-2.93a10.54,10.54 0 0 1 5.63,-9.89a14.44,14.44 0 0 1 3.7,-1.38a12.38,12.38 0 0 1 1.82,-0.28a8.06,8.06 0 0 1 0.85,0a9,9 0 0 1 3.4,0.67a1.08,1.08 0 0 1 0.62,0.68a1,1 0 0 1 0,0.49a1.28,1.28 0 0 1 -0.13,0.29a1.12,1.12 0 0 1 -1.29,0.43a11.68,11.68 0 0 0 -3.45,-0.6l-0.08,0c-5.13,0.19 -7.47,2.87 -8.53,5.08a11.77,11.77 0 0 0 -1.06,4.18c0,0.43 0,0.7 0,0.75a9.16,9.16 0 0 0 2.51,6.81c2.79,2.74 7,2.77 7.43,2.76l0.08,0a15,15 0 0 0 3.38,-0.69a10.62,10.62 0 0 0 2.24,-1a8.13,8.13 0 0 0 2.84,-2.81a7.35,7.35 0 0 0 1.14,-3.92l0,0l0,-20.19s0,0 0,-0.08a1.13,1.13 0 0 1 0.69,-0.93l0.07,0a1.12,1.12 0 0 1 0.31,0l0.22,0a1.06,1.06 0 0 1 0.77,0.32a1.08,1.08 0 0 1 0.18,0.24l0,0a0.41,0.41 0 0 1 -0.14,0.39l0,0l0,20.24a0.62,0.62 0 0 1 0,0.13a11.58,11.58 0 0 1 -2,5.38c-0.1,0.14 -0.22,0.3 -0.35,0.45a10.4,10.4 0 0 1 -4,2.94a14.14,14.14 0 0 1 -5.28,1.12m0.44,-23.07a7.87,7.87 0 0 0 -0.84,0a14.07,14.07 0 0 0 -1.8,0.28a14.73,14.73 0 0 0 -3.69,1.37a10.45,10.45 0 0 0 -5.57,9.8l0,0a12.86,12.86 0 0 0 0.27,2.9a11.05,11.05 0 0 0 2.64,5.44a10.47,10.47 0 0 0 6.75,3.1c0.54,0.05 1.11,0.08 1.69,0.08l0.09,0a13.92,13.92 0 0 0 5.22,-1.12a10.27,10.27 0 0 0 3.93,-2.91c0.13,-0.15 0.24,-0.3 0.35,-0.44a11.63,11.63 0 0 0 2,-5.33a0.57,0.57 0 0 0 0,-0.12l0,-20.26l0.06,-0.07a0.3,0.3 0 0 0 0.12,-0.28a0.75,0.75 0 0 0 -0.15,-0.2a1,1 0 0 0 -0.7,-0.3l-0.21,0a0.92,0.92 0 0 0 -0.28,0l-0.07,0a1,1 0 0 0 -0.62,0.84l0,20.3a7.45,7.45 0 0 1 -1.15,4a8.19,8.19 0 0 1 -2.88,2.85a10.59,10.59 0 0 1 -2.26,1a14.25,14.25 0 0 1 -3.41,0.62l-0.09,0c-0.47,0 -4.69,0 -7.5,-2.8a9.23,9.23 0 0 1 -2.55,-6.87s0,-0.33 0,-0.77a11.58,11.58 0 0 1 1.07,-4.21c1.07,-2.24 3.44,-5 8.62,-5.14l0.08,0a11.21,11.21 0 0 1 3.48,0.6a1,1 0 0 0 1.16,-0.39a1.15,1.15 0 0 0 0.12,-0.25a1.09,1.09 0 0 0 0,-0.44a1,1 0 0 0 -0.56,-0.62a9,9 0 0 0 -3.36,-0.66" class="cls-3"/>
  </g>
 </g>
</svg>